<svg width="1434" height="136" viewBox="0 0 1434 136" fill="none" xmlns="http://www.w3.org/2000/svg">
<path d="M1418.38 70.2881C1418.12 66.9601 1417.44 63.8027 1416.33 60.8161C1415.31 57.7441 1413.82 55.0561 1411.85 52.7521C1409.98 50.3627 1407.63 48.4854 1404.81 47.1201C1402 45.6694 1398.71 44.9441 1394.96 44.9441C1391.71 44.9441 1388.68 45.5841 1385.87 46.8641C1383.05 48.1441 1380.58 49.9361 1378.44 52.2401C1376.4 54.4587 1374.69 57.1467 1373.32 60.3041C1371.96 63.3761 1371.15 66.7041 1370.89 70.2881H1418.38ZM1396.24 107.536C1391.97 107.536 1387.87 106.725 1383.95 105.104C1380.11 103.483 1376.7 101.179 1373.71 98.1921C1370.81 95.2054 1368.5 91.6214 1366.8 87.4401C1365.09 83.2588 1364.24 78.6081 1364.24 73.4881V73.2321C1364.24 68.5387 1365 64.1441 1366.54 60.0481C1368.16 55.8667 1370.34 52.2401 1373.07 49.1681C1375.88 46.0961 1379.17 43.6641 1382.92 41.8721C1386.68 40.0801 1390.78 39.1841 1395.21 39.1841C1399.82 39.1841 1403.96 40.0801 1407.63 41.8721C1411.3 43.5787 1414.41 45.9681 1416.97 49.0401C1419.62 52.1121 1421.62 55.7387 1422.99 59.9201C1424.44 64.0161 1425.16 68.4961 1425.16 73.3601C1425.16 73.9574 1425.16 74.4267 1425.16 74.7681C1425.16 75.0241 1425.12 75.4081 1425.04 75.9201H1370.89C1371.15 80.0161 1372.04 83.6428 1373.58 86.8001C1375.12 89.9574 1377.04 92.6454 1379.34 94.8641C1381.64 97.0827 1384.25 98.7894 1387.15 99.9841C1390.14 101.093 1393.25 101.648 1396.49 101.648C1401.61 101.648 1405.92 100.667 1409.42 98.7041C1413 96.7414 1416.16 94.3094 1418.89 91.4081L1423.24 95.2481C1419.92 98.8321 1416.12 101.776 1411.85 104.08C1407.67 106.384 1402.47 107.536 1396.24 107.536Z" fill="white"/>
<path d="M1339.23 107.152C1336.67 107.152 1334.28 106.811 1332.06 106.128C1329.84 105.445 1327.88 104.379 1326.17 102.928C1324.55 101.392 1323.27 99.5147 1322.33 97.2961C1321.39 94.9921 1320.92 92.3041 1320.92 89.2321V46.4801H1311.45V40.7201H1320.92V19.8561H1327.19V40.7201H1350.11V46.4801H1327.19V88.5921C1327.19 93.2854 1328.39 96.5707 1330.78 98.4481C1333.25 100.325 1336.41 101.264 1340.25 101.264C1341.87 101.264 1343.41 101.093 1344.86 100.752C1346.31 100.411 1347.97 99.8134 1349.85 98.9601V104.848C1348.14 105.616 1346.44 106.171 1344.73 106.512C1343.11 106.939 1341.27 107.152 1339.23 107.152Z" fill="white"/>
<path d="M1264.19 101.648C1267.52 101.648 1270.68 101.179 1273.66 100.24C1276.65 99.216 1279.25 97.8507 1281.47 96.144C1283.77 94.352 1285.57 92.2187 1286.85 89.744C1288.21 87.2694 1288.89 84.5387 1288.89 81.552V74.128C1286.16 73.4454 1282.96 72.8054 1279.29 72.208C1275.63 71.5254 1271.44 71.184 1266.75 71.184C1259.84 71.184 1254.51 72.592 1250.75 75.408C1247.08 78.1387 1245.25 81.808 1245.25 86.416V86.672C1245.25 89.0614 1245.76 91.1947 1246.78 93.072C1247.81 94.864 1249.17 96.4 1250.88 97.68C1252.67 98.96 1254.72 99.9414 1257.02 100.624C1259.33 101.307 1261.72 101.648 1264.19 101.648ZM1263.81 107.536C1260.73 107.536 1257.71 107.109 1254.72 106.256C1251.73 105.403 1249.04 104.123 1246.65 102.416C1244.27 100.709 1242.3 98.576 1240.77 96.016C1239.32 93.456 1238.59 90.4694 1238.59 87.056V86.8C1238.59 83.3867 1239.27 80.3574 1240.64 77.712C1242.09 75.0667 1244.05 72.848 1246.53 71.056C1249 69.264 1251.99 67.8987 1255.49 66.96C1258.98 66.0214 1262.87 65.552 1267.13 65.552C1271.74 65.552 1275.71 65.808 1279.04 66.32C1282.37 66.832 1285.61 67.5147 1288.77 68.368V65.552C1288.77 58.896 1286.85 53.904 1283.01 50.576C1279.25 47.248 1274 45.584 1267.26 45.584C1263.25 45.584 1259.58 46.096 1256.25 47.12C1252.93 48.0587 1249.77 49.296 1246.78 50.832L1244.48 45.328C1248.06 43.6214 1251.69 42.256 1255.36 41.232C1259.03 40.208 1263.12 39.696 1267.65 39.696C1276.61 39.696 1283.48 42.0854 1288.25 46.864C1292.69 51.3014 1294.91 57.4454 1294.91 65.296V106H1288.77V95.12C1287.66 96.656 1286.29 98.192 1284.67 99.728C1283.13 101.179 1281.34 102.501 1279.29 103.696C1277.25 104.805 1274.9 105.701 1272.25 106.384C1269.69 107.152 1266.88 107.536 1263.81 107.536Z" fill="white"/>
<path d="M1212.99 12.5601H1219.26V106H1212.99V12.5601Z" fill="white"/>
<path d="M1160.1 101.52C1163.69 101.52 1167.02 100.88 1170.09 99.6001C1173.24 98.3201 1175.98 96.4854 1178.28 94.0961C1180.58 91.7068 1182.38 88.8054 1183.66 85.3921C1185.02 81.8934 1185.7 77.9681 1185.7 73.6161V73.3601C1185.7 69.0934 1185.02 65.2107 1183.66 61.7121C1182.29 58.2134 1180.41 55.2694 1178.02 52.8801C1175.72 50.4054 1172.99 48.5281 1169.83 47.2481C1166.76 45.8827 1163.52 45.2001 1160.1 45.2001C1156.69 45.2001 1153.36 45.8827 1150.12 47.2481C1146.96 48.6134 1144.15 50.5334 1141.67 53.0081C1139.2 55.4827 1137.19 58.4267 1135.66 61.8401C1134.2 65.2534 1133.48 69.0507 1133.48 73.2321V73.4881C1133.48 77.6694 1134.2 81.5094 1135.66 85.0081C1137.19 88.4214 1139.2 91.3654 1141.67 93.8401C1144.15 96.2294 1146.96 98.1068 1150.12 99.4721C1153.36 100.837 1156.69 101.52 1160.1 101.52ZM1127.59 40.7201H1133.86V55.3121C1135.23 53.1787 1136.81 51.1307 1138.6 49.1681C1140.39 47.2054 1142.35 45.4987 1144.49 44.0481C1146.71 42.5974 1149.14 41.4454 1151.78 40.5921C1154.51 39.6534 1157.5 39.1841 1160.74 39.1841C1164.67 39.1841 1168.51 39.9521 1172.26 41.4881C1176.1 43.0241 1179.52 45.2427 1182.5 48.1441C1185.49 51.0454 1187.88 54.6294 1189.67 58.8961C1191.55 63.0774 1192.49 67.8134 1192.49 73.1041V73.3601C1192.49 78.6508 1191.55 83.4294 1189.67 87.6961C1187.88 91.8774 1185.49 95.4614 1182.5 98.4481C1179.52 101.349 1176.1 103.611 1172.26 105.232C1168.51 106.768 1164.67 107.536 1160.74 107.536C1157.5 107.536 1154.51 107.109 1151.78 106.256C1149.05 105.403 1146.58 104.251 1144.36 102.8C1142.23 101.349 1140.26 99.6854 1138.47 97.8081C1136.76 95.9307 1135.23 93.9681 1133.86 91.9201V126.48H1127.59V40.7201Z" fill="white"/>
<path d="M1076.34 40.7201H1082.61V59.2801C1083.89 56.3788 1085.51 53.6908 1087.48 51.2161C1089.44 48.7414 1091.66 46.6508 1094.13 44.9441C1096.61 43.1521 1099.3 41.8294 1102.2 40.9761C1105.18 40.0374 1108.3 39.6108 1111.54 39.6961V46.6081H1110.9C1107.15 46.6081 1103.56 47.3334 1100.15 48.7841C1096.74 50.1494 1093.71 52.2401 1091.06 55.0561C1088.5 57.7868 1086.45 61.2001 1084.92 65.2961C1083.38 69.3068 1082.61 73.9574 1082.61 79.2481V106H1076.34V40.7201Z" fill="white"/>
<path d="M1051.26 70.2881C1051 66.9601 1050.32 63.8027 1049.21 60.8161C1048.18 57.7441 1046.69 55.0561 1044.73 52.7521C1042.85 50.3627 1040.5 48.4854 1037.69 47.1201C1034.87 45.6694 1031.59 44.9441 1027.83 44.9441C1024.59 44.9441 1021.56 45.5841 1018.74 46.8641C1015.93 48.1441 1013.45 49.9361 1011.32 52.2401C1009.27 54.4587 1007.56 57.1467 1006.2 60.3041C1004.83 63.3761 1004.02 66.7041 1003.77 70.2881H1051.26ZM1029.11 107.536C1024.84 107.536 1020.75 106.725 1016.82 105.104C1012.98 103.483 1009.57 101.179 1006.58 98.1921C1003.68 95.2054 1001.38 91.6214 999.672 87.4401C997.965 83.2588 997.112 78.6081 997.112 73.4881V73.2321C997.112 68.5387 997.88 64.1441 999.416 60.0481C1001.04 55.8667 1003.21 52.2401 1005.94 49.1681C1008.76 46.0961 1012.04 43.6641 1015.8 41.8721C1019.55 40.0801 1023.65 39.1841 1028.09 39.1841C1032.7 39.1841 1036.83 40.0801 1040.5 41.8721C1044.17 43.5787 1047.29 45.9681 1049.85 49.0401C1052.49 52.1121 1054.5 55.7387 1055.86 59.9201C1057.31 64.0161 1058.04 68.4961 1058.04 73.3601C1058.04 73.9574 1058.04 74.4267 1058.04 74.7681C1058.04 75.0241 1058 75.4081 1057.91 75.9201H1003.77C1004.02 80.0161 1004.92 83.6428 1006.46 86.8001C1007.99 89.9574 1009.91 92.6454 1012.22 94.8641C1014.52 97.0827 1017.12 98.7894 1020.02 99.9841C1023.01 101.093 1026.12 101.648 1029.37 101.648C1034.49 101.648 1038.8 100.667 1042.3 98.7041C1045.88 96.7414 1049.04 94.3094 1051.77 91.4081L1056.12 95.2481C1052.79 98.8321 1048.99 101.776 1044.73 104.08C1040.55 106.384 1035.34 107.536 1029.11 107.536Z" fill="white"/>
<path d="M970.613 12.5601H976.885V106H970.613V12.5601Z" fill="white"/>
<path d="M938.737 40.7201H945.01V106H938.737V40.7201ZM937.969 15.1201H945.778V23.6961H937.969V15.1201Z" fill="white"/>
<path d="M885.151 101.648C888.991 101.648 892.532 100.923 895.775 99.4721C899.103 97.9361 901.919 95.9308 904.223 93.4561C906.612 90.8961 908.447 87.9094 909.727 84.4961C911.092 81.0828 911.775 77.4561 911.775 73.6161V73.3601C911.775 69.4348 911.092 65.7654 909.727 62.3521C908.361 58.8534 906.441 55.8241 903.967 53.2641C901.577 50.7041 898.719 48.6987 895.391 47.2481C892.148 45.7974 888.649 45.0721 884.895 45.0721C881.055 45.0721 877.471 45.8401 874.143 47.3761C870.9 48.8267 868.084 50.8321 865.695 53.3921C863.391 55.8667 861.556 58.8107 860.191 62.2241C858.911 65.6374 858.271 69.2641 858.271 73.1041V73.3601C858.271 77.2854 858.953 80.9974 860.319 84.4961C861.684 87.9094 863.561 90.8961 865.951 93.4561C868.425 96.0161 871.284 98.0214 874.527 99.4721C877.855 100.923 881.396 101.648 885.151 101.648ZM884.895 107.536C880.031 107.536 875.551 106.64 871.455 104.848C867.444 102.971 863.945 100.496 860.959 97.4241C857.972 94.3521 855.625 90.7681 853.919 86.6721C852.297 82.5761 851.487 78.2241 851.487 73.6161V73.3601C851.487 68.7521 852.297 64.4001 853.919 60.3041C855.625 56.2081 857.972 52.5814 860.959 49.4241C864.031 46.2667 867.615 43.7921 871.711 42.0001C875.807 40.1227 880.287 39.1841 885.151 39.1841C890.015 39.1841 894.452 40.1227 898.463 42.0001C902.559 43.7921 906.1 46.2241 909.087 49.2961C912.073 52.3681 914.377 55.9521 915.999 60.0481C917.705 64.1441 918.559 68.4961 918.559 73.1041V73.3601C918.559 77.9681 917.705 82.3201 915.999 86.4161C914.377 90.5121 912.031 94.1387 908.959 97.2961C905.972 100.453 902.431 102.971 898.335 104.848C894.239 106.64 889.759 107.536 884.895 107.536Z" fill="white"/>
<path d="M803.979 101.52C807.563 101.52 810.891 100.88 813.963 99.6001C817.12 98.3201 819.851 96.4854 822.155 94.0961C824.459 91.7067 826.251 88.8054 827.531 85.3921C828.896 81.8934 829.579 77.9681 829.579 73.6161V73.3601C829.579 69.0934 828.896 65.2107 827.531 61.7121C826.165 58.2134 824.288 55.2694 821.899 52.8801C819.595 50.4054 816.864 48.5281 813.707 47.2481C810.635 45.8827 807.392 45.2001 803.979 45.2001C800.565 45.2001 797.237 45.8827 793.995 47.2481C790.837 48.6134 788.021 50.5334 785.547 53.0081C783.072 55.4827 781.067 58.4267 779.531 61.8401C778.08 65.2534 777.355 69.0507 777.355 73.2321V73.4881C777.355 77.6694 778.08 81.5094 779.531 85.0081C781.067 88.4214 783.072 91.3654 785.547 93.8401C788.021 96.2294 790.837 98.1067 793.995 99.4721C797.237 100.837 800.565 101.52 803.979 101.52ZM804.619 107.536C801.376 107.536 798.389 107.109 795.659 106.256C792.928 105.403 790.453 104.251 788.235 102.8C786.101 101.349 784.139 99.6854 782.347 97.8081C780.64 95.9307 779.104 93.9681 777.739 91.9201V106H771.467V12.5601H777.739V55.3121C779.104 53.1787 780.683 51.1307 782.475 49.1681C784.267 47.2054 786.229 45.4987 788.363 44.0481C790.581 42.5974 793.013 41.4454 795.659 40.5921C798.389 39.6534 801.376 39.1841 804.619 39.1841C808.544 39.1841 812.384 39.9521 816.139 41.4881C819.979 43.0241 823.392 45.2427 826.379 48.1441C829.365 51.0454 831.755 54.6294 833.547 58.8961C835.424 63.0774 836.363 67.8134 836.363 73.1041V73.3601C836.363 78.6507 835.424 83.4294 833.547 87.6961C831.755 91.8774 829.365 95.4614 826.379 98.4481C823.392 101.349 819.979 103.611 816.139 105.232C812.384 106.768 808.544 107.536 804.619 107.536Z" fill="white"/>
<path d="M718.047 86.032C718.047 100.24 707.039 107.28 692.959 107.28C683.359 107.28 672.735 103.824 664.287 97.168L671.199 86.672C678.495 92.176 686.431 94.992 693.343 94.992C699.999 94.992 703.839 92.176 703.839 87.696V87.44C703.839 82.192 696.671 80.4 688.735 77.968C678.751 75.152 667.615 71.056 667.615 58.128V57.872C667.615 45.072 678.239 37.264 691.679 37.264C700.127 37.264 709.343 40.208 716.511 44.944L710.367 55.952C703.839 51.984 696.927 49.552 691.295 49.552C685.279 49.552 681.823 52.368 681.823 56.336V56.592C681.823 61.456 689.119 63.504 697.055 66.064C706.911 69.136 718.047 73.616 718.047 85.776V86.032Z" fill="white"/>
<path d="M650.062 28.048H633.422V13.328H650.062V28.048ZM634.062 38.416H649.55V106.896C649.55 120.592 642.51 126.864 629.838 126.864C626.894 126.864 624.846 126.608 622.414 126.224V113.808C623.95 114.064 625.358 114.192 626.766 114.192C631.118 114.192 634.062 111.888 634.062 106V38.416Z" fill="white"/>
<path d="M599.354 51.7281V84.8801C599.354 90.8961 602.426 93.3281 607.674 93.3281C611.13 93.3281 614.202 92.5601 617.274 91.0241V103.696C613.434 105.872 609.082 107.152 603.322 107.152C591.93 107.152 583.866 102.16 583.866 87.3121V51.7281H575.29V38.4161H583.866V19.8561H599.354V38.4161H617.53V51.7281H599.354Z" fill="white"/>
<path d="M542.128 71.312L567.088 106H550.192L533.552 82.32L517.04 106H500.528L525.36 71.696L501.424 38.416H518.32L533.936 60.688L549.552 38.416H566.064L542.128 71.312Z" fill="white"/>
<path d="M444.817 77.7121C446.609 88.7201 454.289 94.8641 464.273 94.8641C471.825 94.8641 477.201 92.0481 482.577 86.8001L491.665 94.8641C485.265 102.544 476.433 107.536 464.017 107.536C444.433 107.536 429.329 93.3281 429.329 72.3361C429.329 52.8801 443.025 37.0081 462.353 37.0081C483.857 37.0081 494.737 53.9041 494.737 73.4881C494.737 74.8961 494.609 76.1761 494.481 77.7121H444.817ZM444.689 67.4721H479.377C478.353 57.4881 472.465 49.6801 462.225 49.6801C452.753 49.6801 446.097 56.9761 444.689 67.4721Z" fill="white"/>
<path d="M369.154 67.8561V106H353.666V38.4161H369.154V48.9121C373.506 42.5121 379.778 37.0081 390.274 37.0081C405.506 37.0081 414.338 47.2481 414.338 62.9921V106H398.85V67.6001C398.85 57.1041 393.602 51.0881 384.386 51.0881C375.426 51.0881 369.154 57.3601 369.154 67.8561Z" fill="white"/>
<path d="M276.591 30.4801V12.5601H301.935V30.4801H276.591ZM277.103 106V36.7521H301.423V106H277.103Z" fill="white"/>
<path d="M221.841 106V36.752H246.161V50.704C250.129 41.232 256.529 35.088 268.049 35.6V61.2H266.001C253.329 61.2 246.161 68.496 246.161 84.496V106H221.841Z" fill="white"/>
<path d="M163.756 107.536C149.036 107.536 140.204 97.8081 140.204 82.0641V36.7521H164.524V74.2561C164.524 81.8081 168.492 85.9041 174.38 85.9041C180.14 85.9041 184.492 81.8081 184.492 74.2561V36.7521H208.812V106H184.492V96.5281C180.012 102.288 173.612 107.536 163.756 107.536Z" fill="white"/>
<path d="M83.9305 107.536C70.7465 107.536 60.6345 99.984 60.6345 86.16V85.904C60.6345 71.568 71.5145 64.144 87.7705 64.144C94.1705 64.144 100.443 65.424 104.411 66.832V65.68C104.411 58.512 99.9305 54.416 90.5865 54.416C83.2905 54.416 77.6585 55.824 71.5145 58.256L66.5225 41.104C74.3305 37.904 82.6505 35.728 94.5545 35.728C106.971 35.728 115.419 38.672 120.923 44.176C126.171 49.296 128.347 56.464 128.347 66.192V106H104.283V98.832C99.5465 104.08 93.0185 107.536 83.9305 107.536ZM92.6345 92.304C99.6745 92.304 104.667 87.824 104.667 80.912V77.712C102.235 76.688 98.7785 75.92 95.1945 75.92C88.1545 75.92 84.0585 79.376 84.0585 84.496V84.752C84.0585 89.488 87.6425 92.304 92.6345 92.304Z" fill="white"/>
<path d="M36.4856 107.408C21.8936 107.408 13.1896 101.008 13.1896 84.4961V56.3361H4.99756V36.7521H13.1896V19.2161H37.5096V36.7521H53.6376V56.3361H37.5096V79.7601C37.5096 84.6241 39.6856 86.6721 44.1656 86.6721C47.3656 86.6721 50.4376 85.7761 53.3816 84.3681V103.44C49.0296 105.872 43.2696 107.408 36.4856 107.408Z" fill="white"/>
</svg>
